<?xml version="1.0" encoding="utf-8"?>
<!-- Generator: Adobe Illustrator 23.1.1, SVG Export Plug-In . SVG Version: 6.00 Build 0)  -->
<svg version="1.1" id="Layer_1" xmlns="http://www.w3.org/2000/svg" xmlns:xlink="http://www.w3.org/1999/xlink" x="0px" y="0px"
	 viewBox="0 0 1401.4 447.2" style="enable-background:new 0 0 1401.4 447.2;" xml:space="preserve">
<style type="text/css">
	.st0{fill:#FFFFFE;}
	.st1{fill-opacity:0;stroke:#8A8B8A;stroke-width:1.5;stroke-linecap:round;stroke-linejoin:round;}
	.st2{fill:#9E9F9E;}
	.st3{fill:#00A766;}
	.st4{fill:#6E583C;}
	.st5{fill:#63B774;}
	.st6{fill:url(#SVGID_1_);}
	.st7{fill:#D8232A;}
	.st8{fill:#4D4E4C;}
	.st9{fill:#ABDCEC;}
	.st10{fill:#EB8B2D;}
	.st11{fill:#0084BF;}
	.st12{fill-opacity:0;stroke:#CBCCCB;stroke-width:0.524;}
	.st13{fill:#292D78;}
	.st14{fill:#1A1919;}
	.st15{fill:#92D0D5;}
</style>
<g>
	<path class="st0" d="M938.4,338.9V234.8h49.3v-62.3h124.6v98.3l35.9-9.2v-50.6h165.4v175.2"/>
	<path class="st1" d="M938.4,338.9V234.8h49.3v-62.3h124.6v98.3l35.9-9.2v-50.6h165.4v175.2"/>
	<path class="st0" d="M751.1,339.8v-163h52.3v-39.7h62v133.6h46.8v109.2"/>
	<path class="st1" d="M751.1,339.8v-163h52.3v-39.7h62v133.6h46.8v109.2"/>
	<path class="st0" d="M616.7,338.9v-181h98.5v236.3"/>
	<path class="st1" d="M616.7,338.9v-181h98.5v236.3"/>
	<path class="st0" d="M53.1,389V241.1l35.3-27.2v-78.3h81.5v48.7H230V264h124.6v40.9H396V196.3h88.8v26.3l35.9,26.8v14.1h62.6v75.4"
		/>
	<path class="st1" d="M53.1,389V241.1l35.3-27.2v-78.3h81.5v48.7H230V264h124.6v40.9H396V196.3h88.8v26.3l35.9,26.8v14.1h62.6v75.4"
		/>
	<path class="st2" d="M1223,231.4h13.5v17l-13.5,0V231.4"/>
	<path class="st2" d="M1169.4,271.8h13.5v17h-13.5V271.8z"/>
	<path class="st2" d="M1196.2,271.8h13.5v17h-13.5V271.8z"/>
	<path class="st2" d="M1223,271.8h13.5v17l-13.5,0V271.8"/>
	<path class="st2" d="M1003.2,199.9h13.5v17h-13.5V199.9z"/>
	<path class="st2" d="M1030,199.9h13.5v17H1030V199.9z"/>
	<path class="st2" d="M1056.9,199.9l13.5,0l0,17h-13.5L1056.9,199.9"/>
	<path class="st2" d="M1003.2,251.4h13.5v17h-13.5V251.4z"/>
	<path class="st2" d="M1030,251.4h13.5v17H1030V251.4z"/>
	<path class="st2" d="M1055.7,249.9h15.9l0,20.1h-15.9L1055.7,249.9"/>
	<path class="st2" d="M1083.7,199.9l13.5,0l0,17h-13.5L1083.7,199.9"/>
	<path class="st2" d="M1083.7,251.4h13.5l0,17h-13.5L1083.7,251.4"/>
	<path class="st2" d="M769,195.1h13.5v17H769V195.1z"/>
	<path class="st2" d="M800.6,195.1h13.5v17h-13.5V195.1z"/>
	<path class="st2" d="M832.2,195.1h13.5l0,17l-13.5,0L832.2,195.1"/>
	<path class="st2" d="M769,243.3h13.5v17H769V243.3z"/>
	<path class="st2" d="M832.2,291.5h13.5l0,17l-13.5,0L832.2,291.5"/>
	<path class="st2" d="M134.4,213.8h13.5v17h-13.5V213.8z"/>
	<path class="st2" d="M166,213.8h13.5v17H166V213.8z"/>
	<path class="st2" d="M197.6,213.8h13.5l0,17h-13.5V213.8"/>
	<path class="st2" d="M134.4,255.4h13.5v17h-13.5V255.4z"/>
	<path class="st2" d="M166,255.4h13.5v17H166V255.4z"/>
	<path class="st2" d="M197.6,255.4l13.5,0l0,17l-13.5,0V255.4"/>
	<path class="st2" d="M134.4,297h13.5v17h-13.5V297z"/>
	<path class="st2" d="M229.1,297h13.5v17h-13.5V297z"/>
	<path class="st2" d="M259.5,295.5h15.9v20h-15.9V295.5z"/>
	<path class="st2" d="M875.3,290h15.9l0,20.1l-15.9,0L875.3,290"/>
	<path class="st2" d="M1003.2,299.8h13.5v17h-13.5V299.8z"/>
	<path class="st2" d="M1030,299.8h13.5v17H1030V299.8z"/>
	<path class="st2" d="M1055.7,298.3h15.9l0,20.1h-15.9L1055.7,298.3"/>
	<path class="st2" d="M1083.7,299.8h13.5l0,17h-13.5L1083.7,299.8"/>
	<path class="st2" d="M632.8,185.2h13.5v17h-13.5V185.2z"/>
	<path class="st2" d="M659.7,185.2l13.5,0l0,17h-13.5L659.7,185.2"/>
	<path class="st2" d="M632.8,236.6h13.5v17h-13.5V236.6z"/>
	<path class="st2" d="M686.5,185.2l13.5,0v17h-13.5V185.2"/>
	<path class="st2" d="M412.8,232.7h13.5v17h-13.5V232.7z"/>
	<path class="st2" d="M439.7,232.6l13.5,0l0,17h-13.5V232.6"/>
	<path class="st2" d="M466.5,232.6l13.5,0l0,17h-13.5V232.6"/>
	<path class="st2" d="M495,284.1h13.5l0,17l-13.5,0V284.1"/>
	<path class="st2" d="M552,296.3h13.5l0,17H552L552,296.3"/>
	<path class="st3" d="M28,231c-15.5,0-28,41.1-28,69.1c0,24,9.2,44.1,21.5,49.4l1.3-52.1c0-1.6,1.3-2.9,2.9-2.9h3.8
		c1.6,0,2.9,1.3,2.9,2.9l1.3,52.5c12.7-4.8,22.3-25.2,22.3-49.7C56,272.1,43.5,231,28,231"/>
	<path class="st4" d="M34.2,371l-1.8-73.6c0-1.6-1.3-2.9-2.9-2.9h-3.8c-1.6,0-2.9,1.3-2.9,2.9L21,371H34.2"/>
	<path class="st5" d="M99.6,231c-15.5,0-28,41.1-28,69.1c0,24,9.2,44.1,21.5,49.4l1.3-52.1c0-1.6,1.3-2.9,2.9-2.9h3.8
		c1.6,0,2.9,1.3,2.9,2.9l1.3,52.5c12.7-4.8,22.3-25.2,22.3-49.7C127.5,272.1,115,231,99.6,231"/>
	<path class="st4" d="M105.8,371l-1.8-73.6c0-1.6-1.3-2.9-2.9-2.9h-3.8c-1.6,0-2.9,1.3-2.9,2.9L92.6,371H105.8"/>
	<path class="st3" d="M276,231c-15.5,0-28,41.1-28,69.1c0,24,9.2,44.1,21.5,49.4l1.3-52.1c0-1.6,1.3-2.9,2.9-2.9h3.8
		c1.6,0,2.9,1.3,2.9,2.9l1.3,52.5c12.7-4.8,22.3-25.2,22.3-49.7C304,272.1,291.4,231,276,231"/>
	<path class="st4" d="M282.2,371l-1.8-73.6c0-1.6-1.3-2.9-2.9-2.9h-3.8c-1.6,0-2.9,1.3-2.9,2.9L269,371H282.2"/>
	<path class="st5" d="M693.5,231c-15.5,0-28,41.1-28,69.1c0,24,9.2,44.1,21.5,49.4l1.3-52.1c0-1.6,1.3-2.9,2.9-2.9h3.9
		c1.6,0,2.9,1.3,2.9,2.9l1.3,52.5c12.7-4.8,22.3-25.2,22.3-49.7C721.5,272.1,709,231,693.5,231"/>
	<path class="st4" d="M699.7,371l-1.8-73.6c0-1.6-1.3-2.9-2.9-2.9h-3.9c-1.6,0-2.9,1.3-2.9,2.9l-1.8,73.6H699.7"/>
	<path class="st3" d="M879.6,231c-15.5,0-28,41.1-28,69.1c0,24,9.2,44.1,21.5,49.4l1.3-52.1c0-1.6,1.3-2.9,2.9-2.9h3.9
		c1.6,0,2.9,1.3,2.9,2.9l1.3,52.5c12.7-4.8,22.3-25.2,22.3-49.7C907.6,272.1,895.1,231,879.6,231"/>
	<path class="st4" d="M885.8,371l-1.8-73.6c0-1.6-1.3-2.9-2.9-2.9h-3.9c-1.6,0-2.9,1.3-2.9,2.9l-1.8,73.6H885.8"/>
	<path class="st5" d="M1065.7,231c-15.5,0-28,41.1-28,69.1c0,24,9.2,44.1,21.5,49.4l1.3-52.1c0-1.6,1.3-2.9,2.9-2.9h3.9
		c1.6,0,2.9,1.3,2.9,2.9l1.3,52.5c12.7-4.8,22.3-25.2,22.3-49.7C1093.7,272.1,1081.2,231,1065.7,231"/>
	<path class="st4" d="M1071.9,371l-1.8-73.6c0-1.6-1.3-2.9-2.9-2.9h-3.9c-1.6,0-2.9,1.3-2.9,2.9l-1.8,73.6H1071.9"/>
	<path class="st3" d="M1305.8,231c-15.5,0-28,41.1-28,69.1c0,24,9.2,44.1,21.5,49.4l1.3-52.1c0-1.6,1.3-2.9,2.9-2.9h3.8
		c1.6,0,2.9,1.3,2.9,2.9l1.3,52.5c12.7-4.8,22.3-25.2,22.3-49.7C1333.8,272.1,1321.3,231,1305.8,231"/>
	<path class="st4" d="M1312,371l-1.8-73.6c0-1.6-1.3-2.9-2.9-2.9h-3.8c-1.6,0-2.9,1.3-2.9,2.9l-1.8,73.6H1312"/>
	<path class="st5" d="M1372,231c-15.5,0-28,41.1-28,69.1c0,24,9.2,44.1,21.5,49.4l1.3-52.1c0-1.6,1.3-2.9,2.9-2.9h3.8
		c1.6,0,2.9,1.3,2.9,2.9l1.3,52.5c12.7-4.8,22.3-25.2,22.3-49.7C1400,272.1,1387.5,231,1372,231"/>
	<path class="st4" d="M1378.2,371l-1.8-73.6c0-1.6-1.3-2.9-2.9-2.9h-3.8c-1.6,0-2.9,1.3-2.9,2.9L1365,371H1378.2"/>
	
		<linearGradient id="SVGID_1_" gradientUnits="userSpaceOnUse" x1="701.5627" y1="-548.9188" x2="701.5627" y2="-473.9777" gradientTransform="matrix(1 0 0 -1 0 -102)">
		<stop  offset="0" style="stop-color:#FFFFFE"/>
		<stop  offset="6.000000e-03" style="stop-color:#FFFFFE"/>
		<stop  offset="1" style="stop-color:#B5B6B5"/>
	</linearGradient>
	<path class="st6" d="M1398,446.8L5.1,446.9v-74.8L1398,372L1398,446.8z"/>
	<path class="st7" d="M88.5,400.5h149.9c0,0,21.4-6.7,10.2-32c0,0-5.3-10.9-20.1-10.2c0,0-8.3-48.7-67.8-43.6
		c0,0-39.5,3.2-44.9,44.1c0,0-40.8-1.7-38.4,27.1C77.4,385.9,78.6,399,88.5,400.5"/>
	<path class="st8" d="M139.8,399.7c0,9.1-7.4,16.5-16.5,16.5c-9.1,0-16.5-7.4-16.5-16.5c0-9.1,7.4-16.5,16.5-16.5
		C132.4,383.2,139.8,390.6,139.8,399.7"/>
	<path class="st2" d="M131.4,399.7c0,4.5-3.6,8.1-8.1,8.1c-4.5,0-8.1-3.6-8.1-8.1c0-4.5,3.6-8.1,8.1-8.1
		C127.8,391.6,131.4,395.2,131.4,399.7"/>
	<path class="st8" d="M230.6,399.7c0,9.1-7.4,16.5-16.5,16.5c-9.1,0-16.5-7.4-16.5-16.5c0-9.1,7.4-16.5,16.5-16.5
		C223.2,383.2,230.6,390.6,230.6,399.7"/>
	<path class="st2" d="M222.2,399.7c0,4.5-3.6,8.1-8.1,8.1c-4.5,0-8.1-3.6-8.1-8.1c0-4.5,3.6-8.1,8.1-8.1
		C218.6,391.6,222.2,395.2,222.2,399.7"/>
	<path class="st0" d="M97.6,380.8c0,3.9-3.2,7.1-7.2,7.1s-7.2-3.2-7.2-7.1c0-3.9,3.2-7.1,7.2-7.1S97.6,376.8,97.6,380.8"/>
	<path class="st9" d="M125.9,358.8l45.9-0.2v-36.2c-2.9-0.1-5.9,0-9.1,0.3C162.7,322.7,130.3,325.3,125.9,358.8z M181.4,323.4v35.2
		l36.8-0.2C218.3,358.4,213.3,329.3,181.4,323.4"/>
	<path class="st10" d="M838.8,364.4c0,0-7.5-43.6-60.6-39c0,0-35.4,2.8-40.2,39.4c0,0-36.5-1.5-34.3,24.2c0,0,1.1,11.7,10,13.1
		h119.9C833.6,402.1,851.2,402.4,838.8,364.4"/>
	<path class="st8" d="M755.4,401.4c0,8.1-6.6,14.7-14.7,14.7c-8.2,0-14.7-6.6-14.7-14.7c0-8.2,6.6-14.8,14.7-14.8
		C748.8,386.7,755.4,393.3,755.4,401.4"/>
	<path class="st2" d="M747.9,401.4c0,4-3.2,7.2-7.2,7.2c-4,0-7.2-3.2-7.2-7.2c0-4,3.2-7.3,7.2-7.3
		C744.7,394.2,747.9,397.4,747.9,401.4"/>
	<path class="st8" d="M833.6,401.4c0,8.1-6.6,14.7-14.8,14.7c-8.1,0-14.7-6.6-14.7-14.7c0-8.2,6.6-14.8,14.7-14.8
		C826.9,386.7,833.6,393.3,833.6,401.4"/>
	<path class="st2" d="M826,401.4c0,4-3.2,7.2-7.2,7.2c-4,0-7.2-3.2-7.2-7.2c0-4,3.2-7.3,7.2-7.3C822.8,394.2,826,397.4,826,401.4"/>
	<path class="st0" d="M721.7,384.5c0,3.5-2.9,6.3-6.4,6.3c-3.6,0-6.4-2.8-6.4-6.3c0-3.5,2.9-6.3,6.4-6.3
		C718.9,378.2,721.7,381,721.7,384.5"/>
	<path class="st9" d="M747.1,364.9l41-0.2v-32.4c-2.6-0.1-5.2,0-8.1,0.2C780,332.5,751,334.9,747.1,364.9z M796.8,333.2v31.5
		l32.9-0.1C829.7,364.5,825.2,338.4,796.8,333.2"/>
	<path class="st11" d="M337.8,391.9c0,0-11-3.7-11-15.2c0,0-2.4-81.7,0-102.4c0,0,4.2-19.2,23.1-20.9h280c0,0,16.1-3.5,14.3,24.5
		l-1.8,113.9L337.8,391.9"/>
	<path class="st8" d="M445.6,390.3c0,14.3-11.6,25.9-25.9,25.9c-14.3,0-25.9-11.6-25.9-25.9c0-14.3,11.6-25.9,25.9-25.9
		C434,364.4,445.6,376,445.6,390.3"/>
	<path class="st2" d="M432.4,390.3c0,7-5.7,12.7-12.7,12.7c-7,0-12.7-5.7-12.7-12.7c0-7,5.7-12.7,12.7-12.7
		C426.7,377.5,432.4,383.2,432.4,390.3"/>
	<path class="st8" d="M611.7,390.3c0,14.3-11.6,25.9-25.9,25.9c-14.3,0-25.9-11.6-25.9-25.9c0-14.3,11.6-25.9,25.9-25.9
		C600.1,364.4,611.7,376,611.7,390.3"/>
	<path class="st2" d="M598.5,390.3c0,7-5.7,12.7-12.7,12.7c-7,0-12.7-5.7-12.7-12.7c0-7,5.7-12.7,12.7-12.7
		C592.8,377.5,598.5,383.2,598.5,390.3"/>
	<path class="st0" d="M351.6,373.4c0,4.9-4.1,8.9-9.1,8.9c-5,0-9.1-4-9.1-8.9c0-4.9,4.1-8.9,9.1-8.9
		C347.5,364.5,351.6,368.5,351.6,373.4"/>
	<path class="st9" d="M358.6,280.6h-32.2c-1.4,18.5-0.5,60.3,0,75h32.2V280.6"/>
	<path class="st12" d="M366.4,373.8c0,2.9,2.3,5.2,5.2,5.2h20.7c2.9,0,5.2-2.3,5.2-5.2v-87.4c0-2.8-2.3-5.2-5.2-5.2h-20.7
		c-2.8,0-5.2,2.3-5.2,5.2V373.8z M530.3,373.8c0,2.9,2.3,5.2,5.2,5.2h20.7c2.8,0,5.2-2.3,5.2-5.2v-87.4c0-2.8-2.3-5.2-5.2-5.2h-20.7
		c-2.8,0-5.2,2.3-5.2,5.2V373.8z"/>
	<path class="st9" d="M405.2,323.1H440v-42.5h-34.8L405.2,323.1"/>
	<path class="st9" d="M446.5,323.1h34.8v-42.5h-34.8L446.5,323.1"/>
	<path class="st9" d="M487.8,323.1h34.8v-42.5h-34.8L487.8,323.1"/>
	<path class="st9" d="M569.2,323.1h34.8v-42.5h-34.8L569.2,323.1z M610.5,280.6l0,42.5h33l0.8-42.5H610.5"/>
	<path class="st13" d="M1028.7,320.1c0-5-4.1-9.1-9.1-9.1h-97.2c-5,0-9.1,4.1-9.1,9.1v39H898c-5,0-9.1,4.1-9.1,9.1v24.5
		c0,5,4.1,9.1,9.1,9.1h121.6c5,0,9.1-4.1,9.1-9.1v-24.5c0-0.1,0-0.2,0-0.2c0-0.1,0-0.1,0-0.2V320.1"/>
	<path class="st8" d="M946.5,399.7c0,9.1-7.4,16.5-16.5,16.5c-9.1,0-16.5-7.4-16.5-16.5c0-9.1,7.4-16.5,16.5-16.5
		C939.1,383.2,946.5,390.6,946.5,399.7"/>
	<path class="st2" d="M938.1,399.7c0,4.5-3.6,8.1-8.1,8.1c-4.5,0-8.1-3.6-8.1-8.1c0-4.5,3.6-8.1,8.1-8.1
		C934.5,391.6,938.1,395.2,938.1,399.7"/>
	<path class="st8" d="M1020.2,399.7c0,9.1-7.4,16.5-16.5,16.5c-9.1,0-16.5-7.4-16.5-16.5c0-9.1,7.4-16.5,16.5-16.5
		C1012.8,383.2,1020.2,390.6,1020.2,399.7"/>
	<path class="st2" d="M1011.8,399.7c0,4.5-3.6,8.1-8.1,8.1c-4.5,0-8.1-3.6-8.1-8.1c0-4.5,3.6-8.1,8.1-8.1
		C1008.2,391.6,1011.8,395.2,1011.8,399.7"/>
	<path class="st0" d="M911.1,379.9c0,3.9-3.2,7.1-7.2,7.1c-4,0-7.2-3.2-7.2-7.1c0-3.9,3.2-7.1,7.2-7.1
		C907.9,372.9,911.1,376,911.1,379.9"/>
	<path class="st9" d="M1012.6,318.1H980v41.1h40.4v-33.3C1020.4,321.6,1016.8,318.1,1012.6,318.1z M921.7,325.9v33.3h49.7v-41.1h-42
		C925.2,318.1,921.7,321.6,921.7,325.9"/>
	<path class="st14" d="M1276.5,312.1c-0.3-10.1-9.4-14.9-14.9-14.9c0,0-91-0.6-97.8,0c0,0-44.4,3.6-50.4,49.5
		c0,0-38.4,3.1-35.7,35.4c0,0,1.3,14.7,12.5,16.4h135.7c0,0,0,0,0.1,0h40.6c5.4,0,9.9-4.5,9.9-9.9V362c0-0.1,0-0.2,0-0.2
		c0-0.1,0-0.2,0-0.3V312.1"/>
	<path class="st0" d="M1100.4,376.4c0,4.4-3.6,7.9-8.1,7.9c-4.5,0-8.1-3.6-8.1-7.9c0-4.4,3.6-7.9,8.1-7.9
		C1096.8,368.5,1100.4,372,1100.4,376.4"/>
	<path class="st9" d="M1124.8,347.2l51.5-0.2v-41.9c-3.2-0.1-6.6,0-10.2,0.3C1166.1,305.4,1129.7,308.4,1124.8,347.2"/>
	<path class="st9" d="M1259.7,305h-30.5v42.1h39v-33.7C1268.2,308.8,1264.4,305,1259.7,305"/>
	<path class="st9" d="M1181.9,347.2"/>
	<path class="st8" d="M1137.7,397.7c0,10.2-8.3,18.5-18.5,18.5c-10.2,0-18.5-8.3-18.5-18.5c0-10.2,8.3-18.5,18.5-18.5
		C1129.4,379.1,1137.7,387.4,1137.7,397.7"/>
	<path class="st2" d="M1128.3,397.7c0,5-4.1,9.1-9.1,9.1c-5,0-9.1-4.1-9.1-9.1c0-5,4.1-9.1,9.1-9.1
		C1124.3,388.6,1128.3,392.6,1128.3,397.7"/>
	<path class="st8" d="M1263.8,397.7c0,10.2-8.3,18.5-18.5,18.5c-10.2,0-18.5-8.3-18.5-18.5c0-10.2,8.3-18.5,18.5-18.5
		C1255.5,379.1,1263.8,387.4,1263.8,397.7"/>
	<path class="st2" d="M1254.4,397.7c0,5-4.1,9.1-9.1,9.1c-5,0-9.1-4.1-9.1-9.1c0-5,4.1-9.1,9.1-9.1
		C1250.3,388.6,1254.4,392.6,1254.4,397.7"/>
	<g>
		<path class="st9" d="M1181.9,305h41.4v42.1h-41.4V305z"/>
		<path class="st15" d="M205.9,21.9c-6.2-0.2-11.9,2.1-16.1,6.1c0.1-0.5,0.1-1,0.1-1.5c0.5-12.6-9.1-23.2-21.5-23.7
			C159,2.4,150.7,8,147.1,16.3C144.3,7.5,136.3,1,126.7,0.6c-12.4-0.5-22.8,9.3-23.3,21.9c-0.1,2.6,0.2,5,0.9,7.3
			c-3.5-2.8-7.9-4.5-12.7-4.7c-12.4-0.5-22.8,9.3-23.3,21.9c-0.5,12.6,9.1,23.2,21.5,23.7c6.7,0.3,12.8-2.5,17.1-7.1
			c-0.2,12.9,9.7,23.7,22.5,24.2c8.8,0.3,16.7-4.3,21-11.5c3.8,6.3,10.5,10.7,18.3,11c12.4,0.5,22.8-9.3,23.3-21.9
			c0-0.8,0-1.5,0-2.2c3.5,2.5,7.6,4.1,12.2,4.2c12.4,0.5,22.8-9.3,23.3-21.9C227.9,32.9,218.3,22.3,205.9,21.9"/>
	</g>
	<path class="st15" d="M973.9,19.1c-5.1-0.2-9.8,1.7-13.2,5c0-0.4,0.1-0.8,0.1-1.2c0.3-10.2-7.6-18.7-17.8-19
		c-7.7-0.3-14.5,4.3-17.5,11c-2.4-7.1-8.9-12.3-16.8-12.6c-10.2-0.3-18.7,7.6-19,17.8c-0.1,2.1,0.2,4,0.8,5.9
		c-2.9-2.2-6.5-3.6-10.5-3.7c-10.2-0.4-18.7,7.6-19,17.8c-0.3,10.2,7.6,18.7,17.8,19c5.5,0.2,10.5-2.1,14-5.8
		c-0.1,10.4,8.1,19.1,18.6,19.5c7.2,0.3,13.7-3.6,17.2-9.4c3.1,5.1,8.7,8.6,15.1,8.8c10.2,0.3,18.7-7.6,19-17.8c0-0.6,0-1.2,0-1.8
		c2.8,2,6.3,3.3,10,3.4c10.2,0.3,18.7-7.6,19-17.8C992,28,984.1,19.4,973.9,19.1"/>
	<path class="st15" d="M539.2,69.5c-4.4-0.1-8.4,1.5-11.3,4.3c0-0.4,0.1-0.7,0.1-1.1c0.3-8.7-6.5-16.1-15.3-16.3
		c-6.6-0.2-12.5,3.7-15,9.4c-2-6.1-7.7-10.6-14.4-10.8c-8.7-0.3-16,6.5-16.3,15.3c-0.1,1.8,0.2,3.5,0.7,5.1c-2.5-1.9-5.6-3.1-9-3.2
		c-8.7-0.3-16,6.5-16.4,15.3c-0.3,8.7,6.5,16.1,15.3,16.3c4.7,0.2,9.1-1.8,12.1-5c-0.1,9,7,16.4,16,16.7c6.2,0.2,11.8-3.1,14.8-8.1
		c2.7,4.4,7.4,7.4,13,7.6c8.7,0.3,16.1-6.6,16.4-15.3c0-0.5,0-1,0-1.5c2.4,1.7,5.4,2.8,8.6,2.9c8.7,0.3,16.1-6.5,16.3-15.3
		C554.8,77.1,548,69.8,539.2,69.5"/>
	<path class="st15" d="M1309.7,45c-5.6-0.2-10.8,1.9-14.6,5.4c0.1-0.4,0.1-0.9,0.1-1.4c0.4-11.2-8.3-20.6-19.6-21.1
		c-8.6-0.3-16.1,4.7-19.4,12c-2.6-7.8-9.8-13.6-18.5-13.9c-11.2-0.4-20.7,8.3-21.1,19.5c-0.1,2.3,0.2,4.5,0.8,6.5
		c-3.2-2.5-7.2-4-11.6-4.2c-11.2-0.4-20.7,8.3-21.1,19.5c-0.4,11.2,8.3,20.7,19.5,21.1c6.1,0.2,11.7-2.2,15.6-6.3
		c-0.2,11.5,8.8,21.1,20.4,21.6c8,0.3,15.2-3.9,19.1-10.3c3.4,5.6,9.5,9.5,16.6,9.8c11.2,0.4,20.7-8.3,21.1-19.5c0-0.7,0-1.3,0-2
		c3.1,2.3,6.9,3.6,11.1,3.8c11.2,0.4,20.7-8.3,21.1-19.5C1329.7,54.9,1320.9,45.4,1309.7,45"/>
</g>
</svg>
